Patient4_TMGait_0pt7_02_right_32_EMG.mot
version=1
nRows=36
nColumns=33
inDegrees=no
endheader
time	1LAddLong	2LGlutMax	3LGlutMed	4LIliopsoas	5LSemiMemb	6LBicFemLong	7LRecFem	8LVastMed	9LVastLat	10LGasMed	11LTibAnt	12lTibPost	13LPeroneusLong	14LSol	15LExtDigLong	16LFlexDigLong	17RAddLong	18RGlutMax	19RGlutMed	20RIliopsoas	21RSemiMemb	22RBicFemLong	23RRecFem	24RVastMed	25RVastLat	26RGasMed	27RTibAnt	28RTibPost	29RPeroneusLong	30RSol	31RExtDigLong	32RFlexDigLong
37.24	0.009308	-0.089111	0.1593	0.020447	0.007782	-0.35584	0.13351	-0.003815	0.030365	-0.11078	-0.19089	0.001068	-0.54459	0.59799	-0.81833	0.001678	0.00412	-0.18127	0.69183	-0.015259	-0.012817	-0.016937	-0.048828	-0.10941	-0.005341	0.004883	-0.23529	0.001221	0.025177	-0.069885	0.000458	0.001221
37.241	0.006866	-0.10605	0.14999	0.026245	0.016022	-0.23727	0.2124	-0.010223	-0.013123	-0.037537	-0.11505	0.005341	-0.73105	0.46906	-0.98251	-0.019836	0.015869	-0.20035	0.10178	-0.080872	0.053101	-0.0354	-0.092773	-0.10346	-0.023651	-0.000458	-0.33691	-0.003815	0.000458	0.001526	0.002747	0.005035
37.242	0.005798	-0.11643	0.053253	0.0383	0.019836	-0.10651	0.24719	-0.008698	-0.062714	0.010376	-0.12116	0.005798	0.028534	0.020905	-1.0016	-0.027008	0.024567	-0.26657	0.27039	-0.054474	-0.001831	-0.05661	-0.093689	-0.063934	-0.009766	-0.001068	-0.13809	0.002594	-0.12924	-0.000153	0	-0.00061
37.243	0.000458	-0.15701	0.013123	0.011139	0.017853	-0.030212	0.18631	0.007172	-0.070343	0.053864	-0.2121	0.001526	-0.12604	-0.16586	-0.58044	-0.019836	0.022278	-0.23315	0.60257	-0.056152	-0.059662	-0.086823	-0.070343	-0.08316	-0.002136	0.002747	0.11917	0.003815	-0.12528	-0.088654	-0.000458	0.00824
37.244	0.00412	-0.11566	0.017242	0.002899	0.020752	-0.11002	0.023193	0.00885	0.044708	0.056152	-0.17807	0.012665	0.11719	-0.22751	0.19775	-0.013123	0.003204	-0.27573	0.15121	-0.043945	-0.11795	-0.10712	-0.077972	-0.073853	-0.010223	0.005951	0.22675	0.00351	-0.000153	-0.13794	-0.005188	-0.00946
37.245	0.009003	-0.10605	0.032196	-0.029449	0.021667	-0.20096	-0.24506	0.016785	0.12558	0.10498	0.10834	0.010529	0.42602	-0.31677	0.17212	-0.009308	0.014954	-0.20798	-0.004883	0.074005	-0.11887	-0.11566	-0.088806	-0.094147	0.00061	-0.00412	0.21973	-0.00061	0.028992	-0.084381	-0.004425	-0.004425
37.246	0.01358	-0.096283	0.020142	-0.029144	0.021057	-0.091705	-0.31021	0.012665	0.26825	0.024719	0.059509	0.013123	0.69275	-0.062866	0.5867	0.016632	0.023193	-0.14145	-0.22598	0.06134	-0.12329	-0.16663	-0.082703	-0.14297	-0.00351	-0.008392	0.2243	0.005341	0.10895	-0.11856	0	0.004272
37.247	0.004425	-0.077057	-0.019379	-0.030212	0.040436	0.008392	-0.1947	0.005035	0.23499	-0.029297	0.06485	0.010834	0.30304	0.084991	0.97168	0.031128	0.025787	-0.074005	-0.24155	-0.020294	-0.28046	-0.17029	-0.075836	-0.11993	-0.016937	-0.000458	0.21606	0.004578	0.12238	-0.11704	0.000763	-0.002747
37.248	0.000305	-0.080261	0.006714	-0.021515	0.052795	0.11719	-0.072021	-0.007172	0.009155	-0.084839	0.29816	0.007477	-0.39276	0.11734	0.54535	0.032959	0.023956	-0.11337	0.033264	-0.05722	-0.20615	-0.065918	-0.042572	-0.10727	-0.024414	0	0.24811	0.003204	-0.045013	-0.10559	-0.00061	-0.009918
37.249	0.007782	-0.074768	0.023041	0.002289	0.030518	0.050659	0.076752	-0.017548	-0.15549	-0.076599	0.25314	0.010376	-0.51804	-0.025635	0.28336	0.012817	-0.015869	-0.112	0.54581	0.001526	0.06485	0.022888	-0.031281	-0.027161	0.001831	0.008392	0.47348	0.005188	-0.159	-0.041962	-0.006866	-0.001373
37.25	-0.007172	-0.087585	-0.0383	0.037079	-0.01358	0.040436	0.15656	-0.019989	-0.30838	-0.056458	-0.011292	0.003357	-0.63232	-0.22293	-0.21194	0.009003	-0.029755	-0.17853	0.77972	0.000153	0.059814	0.29465	-0.065155	-0.009613	0.018921	-0.001526	0.57648	0.002136	-0.14297	-0.033417	-0.001831	-0.007629
37.251	-0.018158	-0.10895	-0.053711	0.041504	-0.041962	0.095367	0.17227	-0.00824	-0.20996	-0.007019	-0.03006	0.013428	-0.54764	-0.20325	-0.75272	-0.005493	-0.038452	-0.22324	0.078735	0.027924	0.034485	0.36133	-0.043335	0.017548	0.012817	0.00061	0.080719	0.002289	-0.017548	-0.035095	0.000763	-0.001831
37.252	-0.014648	-0.093079	-0.076904	0.042572	0.000916	0.25436	0.17029	-0.006256	-0.16892	-0.005341	-0.13062	0.010681	-0.54977	-0.092621	-0.07309	-0.013428	-0.056458	-0.18662	-0.075226	0.065613	0.092163	0.15625	-0.03952	0.016632	0.027771	-0.019684	-0.54474	-0.000458	0.036011	0.014343	-0.003662	0.001831
37.253	-0.010681	-0.082092	-0.11551	0.00473	0.043793	0.37094	0.090332	0.002594	-0.14496	0.014343	-0.19959	0.010834	-0.45914	0.012512	0.38208	-0.021515	-0.014038	-0.1091	-0.26474	0.023651	-0.11932	0.23926	-0.003815	-0.060883	0.006409	-0.010376	-0.62866	0.001068	0.15213	0.02533	0.007629	0.000153
37.254	-0.00946	-0.054169	0.036926	-0.007477	0.016174	0.4628	-0.017395	0.007629	-0.14328	0.034943	-0.15198	0.011444	0.1355	-0.052032	-0.41733	-0.014191	0.016174	-0.055237	-0.22064	0.016022	-0.20844	0.11581	0.010529	-0.052948	0.001068	0.009766	-0.56351	-0.004272	0.12253	0.000458	-0.002441	0.011597
37.255	-0.003967	-0.006409	0.11963	-0.035553	-0.025482	0.48798	-0.013733	0.006104	-0.13245	0.010223	-0.10727	0.009308	0.5423	-0.1152	-0.19653	0.008392	0.028839	-0.011292	-0.12741	-0.050201	-0.19348	0.059967	0.009003	-0.055389	-0.005951	0.028076	-0.29984	-0.012512	-0.017548	0.011292	-0.003204	0.007935
37.256	-0.007629	-0.01709	0.074463	-0.03952	-0.026855	0.44418	0.023956	0.005951	-0.13321	0.010376	0.010986	0.012207	0.22064	-0.028076	-0.42053	0.001526	0.02533	-0.055695	-0.068512	-0.13184	0.055237	0.086975	-0.008392	-0.058136	-0.000916	0.038757	-0.007782	-0.015259	-0.12604	0.007324	0.004883	0.003357
37.257	-0.010376	-0.061035	0.051727	-0.006866	0.005188	0.085144	0.064545	0.008545	-0.15945	0.019073	0.1355	0.011749	0.16052	0.012665	-0.057983	0.005341	-0.006104	-0.04837	0.10193	-0.095978	0.11475	0.24262	0.010071	-0.047302	0.000153	-0.022888	-0.011597	-0.010834	-0.14343	0.046692	-0.005341	-0.001984
37.258	-0.007629	-0.057526	-0.039673	0.009613	0.044861	-0.12802	0.061798	-0.020752	-0.14099	0.005341	0.14618	0.016022	0.2388	0.11612	-0.11719	0.006561	-0.023651	-0.072479	0.088196	-0.026093	0.031128	0.19775	0.0354	-0.058441	-0.003204	-0.02533	-0.08728	0.020142	-0.084534	-0.022278	-0.002747	0.002289
37.259	-0.007935	-0.047455	-0.046692	0.001984	0.050812	-0.16419	0.057678	-0.028076	-0.070953	0.005341	-0.14618	0.002899	0.092926	0.095673	-0.057373	0.009918	0.007935	-0.034943	0.023956	0.01297	-0.085144	0.0383	-0.009918	-0.029907	0.009766	-0.000916	-0.056	0.014954	-0.041504	-0.064697	-0.004883	-0.006561
37.26	-0.005188	0.001068	-0.052338	-0.012512	0.059357	-0.1651	0.068207	-0.005493	0.032806	0.030975	-0.19882	0.010834	-0.072479	0.049438	0.13397	0.002441	0.058899	-0.011139	-0.059052	0.029755	-0.20294	-0.084991	0.017853	0.000763	0.015869	0.003052	-0.077972	-0.013123	-0.010529	-0.086212	-0.008545	-0.002289
37.261	0.003204	0.013428	-0.094604	-0.013428	0.051575	-0.16556	0.075226	0.008545	0.065002	-0.010529	-0.071564	0.00885	0.29465	0.05188	0.14297	0.014038	0.052948	0.012817	-0.064697	0.026855	-0.045013	-0.10529	0.042114	-0.085602	-0.000153	0.004272	-0.058594	-0.020752	-0.002594	-0.073242	-0.001526	-0.007019
37.262	0.007324	-0.027466	-0.13886	-0.01358	0.045776	0.078278	0.065918	0.010681	-0.008545	-0.029297	-0.013275	0.006866	0.24368	-0.099182	0.33966	-0.001373	0.068207	-0.059052	-0.069885	-0.021362	0.16098	-0.083466	0.075378	-0.056	-0.009613	0.001221	-0.043945	-0.016174	0.037842	-0.025177	-0.001678	-0.002441
37.263	0.00946	-0.051422	0.002136	-0.006256	0.037384	0.19333	0.045776	-0.010376	0.037994	-0.059052	0.023804	0.01358	0.052795	-0.059967	0.48294	0.002289	0.065613	-0.041046	-0.086365	-0.070038	0.12207	-0.069122	0.065002	-0.099335	-0.008545	0.00351	-0.025482	-0.014038	0.07019	-0.039673	-0.003357	-0.002136
37.264	0.017242	-0.047607	0.011597	0.001526	0.02533	0.11704	-0.008545	-0.024261	0.049438	-0.036926	-0.010986	0.009918	-0.21393	-0.097046	0.27405	-0.000916	0.027008	0.006104	-0.2771	-0.050049	0.005798	0.063324	0.006866	-0.088043	-0.005035	0.00351	0.057983	-0.011292	0.04425	-0.089417	-0.005035	0.000763
37.265	0.023193	-0.09552	0.043335	0.011749	0.027771	-0.028992	-0.00885	-0.011902	0.04715	0.072327	-0.006409	0.00946	0.060577	-0.20126	0.074463	-0.018158	-0.025482	-0.043945	-0.36575	0.069275	-0.052338	0.22461	-0.021362	-0.11093	0.01358	-0.007629	0.27191	-0.011292	-0.12054	-0.11154	-0.00351	-0.005341
37.266	0.014954	-0.10773	-0.030365	0.022888	0.009308	-0.11154	0.039215	-0.001526	0.007935	0.27496	0.032196	0.011902	-0.049286	-0.095215	0.13046	-0.001984	-0.08667	-0.005493	-0.27466	0.092773	-0.038757	0.17425	0.017242	-0.11963	0.006409	-0.045319	0.60516	-0.006409	-0.23727	-0.10117	-0.001526	-0.007324
37.267	0.005798	-0.043182	0.084381	0.036316	-0.02533	-0.078735	0.048981	-0.002136	-0.007629	0.34286	0.03418	0.020599	-0.1152	-0.11398	0.11841	0.007172	-0.082855	0.089569	-0.067596	0.001526	0.006714	0.053558	-0.007477	-0.098419	0.001221	-0.070953	0.99197	-0.010376	-0.25681	-0.16342	-0.001526	0.000305
37.268	0.001068	-0.034637	0.06485	0.003662	-0.05127	-0.018768	0.054474	0.000305	-0.027161	0.10346	0.039673	0.014343	-0.049286	-0.17685	0.076904	-0.007477	-0.06897	0.092163	-0.31906	-0.14358	-0.019073	0.026093	-0.034943	-0.066986	0.009003	-0.071259	1.0693	-0.010223	-0.2211	-0.22492	-0.003815	0.003052
37.269	-0.000153	-0.041504	-0.074463	-0.007629	-0.062256	0.020294	0.029449	0.00412	-0.030365	-0.027466	0.02533	0.022888	0.08255	-0.37033	0.01358	-0.033875	-0.043488	-0.037384	-0.44891	-0.1831	-0.05661	0.031586	-0.073242	-0.08255	0.023804	-0.005341	0.047455	-0.010223	-0.10513	-0.23804	-0.001831	0.01297
37.27	0.001373	-0.049286	-0.035248	0.007782	-0.053558	0.007629	0.027924	-0.004578	-0.023346	0.24643	0.017242	0.022278	0.15808	-0.50476	-0.035095	-0.006256	-0.037231	-0.006714	-0.56702	-0.11032	-0.054626	-0.001068	-0.085144	-0.036926	0.034027	0.067444	-0.74097	-0.012817	0.05661	-0.19104	-0.001831	0.013123
37.271	0.001068	0.004578	0.16144	0.019226	-0.016479	0.020142	0.04715	-0.006714	-0.040741	0.06546	0.027008	0.011902	0.13855	-0.58304	-0.043182	-0.001526	-0.021515	0.026398	0.25131	-0.037231	-0.068665	-0.035706	0.009766	-0.032196	0.016022	0.040131	-1.0909	-0.018768	0.12787	-0.092773	-0.002899	0.020599
37.272	0.003357	0.047455	0.083313	0.055847	0.063477	0.14389	0.044098	0.001984	-0.054169	-0.31067	0.080719	0.010681	-0.12863	-0.51117	0.036469	-0.003204	0.032654	0.039825	0.88455	0.13275	-0.095062	-0.094604	-0.012512	-0.079803	0.028687	0.023041	-0.88867	-0.015717	0.2771	-0.099335	-0.002289	0.018616
37.273	0.011597	-0.027924	-0.044098	0.017853	0.095978	0.18036	0.018921	-0.002289	-0.072327	-0.098114	0.049286	0.00351	-0.051727	-0.28503	0.070343	-0.00885	0.065155	0.049744	0.48462	0.44495	-0.075989	-0.16388	0.024872	-0.053558	0.025787	0.011597	-0.33783	-0.010986	0.18387	-0.11993	-0.001984	0.022736
37.274	0.02182	-0.05249	0.048523	-0.01236	0.075989	0.11261	0.01297	-0.004578	0.009155	-0.16266	0.061951	0.021057	-0.18845	0.020905	0.1326	-0.005188	0.084534	-0.030212	0.38345	0.37445	0.015564	-0.2626	0.054169	-0.077667	0.021667	0.020142	-0.18219	-0.012054	0.081024	-0.18646	-0.009003	0.023346
37.275	0.023651	-0.032349	0.093842	0.010529	0.045471	0.07843	-0.02243	-0.003357	0.051727	-0.084686	0.10239	0.025482	-0.10757	0.16266	0.19043	-0.011902	0.034332	-0.080109	-0.016632	0.028534	0.04303	-0.18387	0.04303	-0.075226	0.003357	0.008087	0.016174	-0.000153	0.057526	-0.17883	-0.002289	0.010834
